# xmcd
#
# Track frame offsets:
#  150
#  12953
#  23207
#  36255
#  49428
#  59145
#  71378
#  80623
#  88363
#  99320
#
# Disc length: 1484 seconds
#
# Revision: 0
# Processed by: cddbd v1.5.1PL2 Copyright (c) Steve Scherf et al.
# Submitted via: Collectorz.com Music Collector 6.9
#
DISCID=8805ca0a
DTITLE=Eddie Dean - Eddie Dean Hillbilly Heaven
DYEAR=1900
DGENRE=
TTITLE0=01 - I Dreamed Of A Hillbilly Heaven
TTITLE1=02 - Love The Way You Say It
TTITLE2=03 - Banks Of The Old Rio Grande
TTITLE3=04 - Impatient Blues
TTITLE4=05 - Tangled Lies
TTITLE5=06 - Walk Beside Me
TTITLE6=07 - Katmandu
TTITLE7=08 - Make Believe
TTITLE8=09 - Seeds Of Doubt
TTITLE9=10 - I Called And I Called
EXTD=
EXTT0=
EXTT1=
EXTT2=
EXTT3=
EXTT4=
EXTT5=
EXTT6=
EXTT7=
EXTT8=
EXTT9=
PLAYORDER=
